<svg id="_1" data-name="1" xmlns="http://www.w3.org/2000/svg" xmlns:xlink="http://www.w3.org/1999/xlink" viewBox="0 0 800 600"><defs><style>.cls-1{fill:url(#linear-gradient);}.cls-2{fill:url(#linear-gradient-2);}.cls-3{fill:url(#linear-gradient-3);}.cls-20,.cls-4{fill:#fff;}.cls-24,.cls-4{stroke:#201046;}.cls-10,.cls-22,.cls-24,.cls-4,.cls-6,.cls-8,.cls-9{stroke-miterlimit:10;}.cls-5{fill:url(#linear-gradient-4);}.cls-10,.cls-22,.cls-24,.cls-6,.cls-8,.cls-9{fill:none;}.cls-10,.cls-6{stroke:#5461fa;}.cls-7{fill:#201046;}.cls-22,.cls-8,.cls-9{stroke:#b799ff;}.cls-10,.cls-22,.cls-9{stroke-width:2px;}.cls-11{fill:url(#linear-gradient-5);}.cls-12{fill:url(#linear-gradient-6);}.cls-13{fill:url(#linear-gradient-7);}.cls-14{fill:url(#linear-gradient-8);}.cls-15{fill:url(#linear-gradient-9);}.cls-16{fill:url(#linear-gradient-10);}.cls-17{fill:url(#linear-gradient-11);}.cls-18{fill:url(#linear-gradient-12);}.cls-19{fill:url(#linear-gradient-13);}.cls-21{fill:url(#linear-gradient-14);}.cls-22{stroke-dasharray:5;}.cls-23{fill:url(#linear-gradient-15);}.cls-25{fill:url(#linear-gradient-16);}.cls-26{fill:#b799ff;}.cls-27{fill:url(#linear-gradient-17);}.cls-28{fill:url(#linear-gradient-18);}</style><linearGradient id="linear-gradient" x1="638.85" y1="197.49" x2="665.15" y2="197.49" gradientUnits="userSpaceOnUse"><stop offset="0" stop-color="#5461fa"/><stop offset="1" stop-color="#3e2ab7"/></linearGradient><linearGradient id="linear-gradient-2" x1="595.39" y1="184.19" x2="621.69" y2="184.19" gradientUnits="userSpaceOnUse"><stop offset="0" stop-color="#a0c5ff"/><stop offset="1" stop-color="#b799ff"/></linearGradient><linearGradient id="linear-gradient-3" x1="682.31" y1="169.2" x2="708.61" y2="169.2" xlink:href="#linear-gradient-2"/><linearGradient id="linear-gradient-4" x1="580.98" y1="476.67" x2="668.83" y2="476.67" xlink:href="#linear-gradient-2"/><linearGradient id="linear-gradient-5" x1="409.34" y1="155.78" x2="476.03" y2="155.78" xlink:href="#linear-gradient"/><linearGradient id="linear-gradient-6" x1="429.68" y1="153.9" x2="454.79" y2="153.9" xlink:href="#linear-gradient"/><linearGradient id="linear-gradient-7" x1="369.65" y1="143.18" x2="377.41" y2="143.18" xlink:href="#linear-gradient"/><linearGradient id="linear-gradient-8" x1="369.65" y1="166.98" x2="377.41" y2="166.98" xlink:href="#linear-gradient"/><linearGradient id="linear-gradient-9" x1="369.65" y1="190.78" x2="377.41" y2="190.78" xlink:href="#linear-gradient"/><linearGradient id="linear-gradient-10" x1="369.65" y1="214.58" x2="377.41" y2="214.58" xlink:href="#linear-gradient"/><linearGradient id="linear-gradient-11" x1="277.75" y1="277.24" x2="285.34" y2="277.24" xlink:href="#linear-gradient-2"/><linearGradient id="linear-gradient-12" x1="260.08" y1="270.18" x2="267.67" y2="270.18" xlink:href="#linear-gradient"/><linearGradient id="linear-gradient-13" x1="295.41" y1="284.31" x2="303.01" y2="284.31" xlink:href="#linear-gradient"/><linearGradient id="linear-gradient-14" x1="633.15" y1="457.57" x2="648.71" y2="457.57" xlink:href="#linear-gradient"/><linearGradient id="linear-gradient-15" x1="127.56" y1="145.09" x2="165.12" y2="145.09" xlink:href="#linear-gradient"/><linearGradient id="linear-gradient-16" x1="384.52" y1="246.04" x2="468.25" y2="246.04" xlink:href="#linear-gradient-2"/><linearGradient id="linear-gradient-17" x1="408.44" y1="141.07" x2="458.09" y2="141.07" xlink:href="#linear-gradient-2"/><linearGradient id="linear-gradient-18" x1="500.54" y1="353.26" x2="559.68" y2="353.26" xlink:href="#linear-gradient"/></defs><title>Artboard 2</title><polygon class="cls-1" points="665.15 213.06 638.85 220.54 638.85 181.92 665.15 174.44 665.15 213.06"/><polygon class="cls-2" points="621.69 225.42 595.38 232.9 595.38 142.97 621.69 135.49 621.69 225.42"/><polygon class="cls-3" points="708.61 200.7 682.31 208.18 682.31 137.7 708.61 130.22 708.61 200.7"/><path class="cls-4" d="M401.3,263.67c-.14.55-5.19,16.67,10.93,18.85.14-.82,1.64-18.85,1.64-18.85Z"/><polygon class="cls-5" points="668.83 496.92 580.98 522.18 580.98 456.42 668.83 431.15 668.83 496.92"/><polyline class="cls-6" points="474.16 77.91 490.22 73.32 490.22 225.68 334.35 270.18"/><polyline class="cls-6" points="249.07 155.78 249.07 142.16 450.99 84.52"/><line class="cls-6" x1="249.07" y1="232.9" x2="249.07" y2="170.86"/><path class="cls-7" d="M474.53,257c.05-.46,5.78-22.32,7-24.73s-8.33-34.79-52-21.4c0,0-9.11,0-15.18-2.52s-10.3,1.71-6.75,7.66,13.62,12.14,13.62,12.14Z"/><path class="cls-4" d="M451.76,209c-.53.27-7,4.92-7.76,19l-13.1-1.43s.4-12.79,7.71-17.58Z"/><path class="cls-4" d="M537.67,427.38c1.53,12.75,2,25.22.55,35.91-5,38-41.93,25.12-47.84,10.71s-6.28-18.1-6.28-18.1-7.89,56-8.31,56.33"/><path class="cls-4" d="M307.16,449.63c-12.93.74-25.8-8.61-39.22-42.17s-14.9-34.85-4.37-41.87,14.22-8.5,14.22-8.5c.74.18,7.84.74,10.71,5s11.27,22,15.7,27.71c0,0,25.12-16.44,38.6-32.69s30.58-27.73,38.23-29c15-2.55,47.47,5.76,42.85-27.48l48-36.13s-11.08,38.93-5.73,53.88c7.2,20.12,41.19,14.39,50.05,30.46,5.43,9.84,14.32,36.31,19.26,64.09"/><path class="cls-4" d="M347.71,484.47c3.29-16.82,8.85-44.33,10.61-56.08,0,0-27.32,14.65-43.59,19.63"/><polyline class="cls-8" points="257.22 402.14 173.47 360.57 173.47 203.34 189.17 211.13"/><polyline class="cls-8" points="205.39 219.18 316.18 274.17 316.18 431.4 275.79 411.36"/><polyline class="cls-9" points="204.86 376.16 204.86 426.73 173.47 411.14"/><polyline class="cls-9" points="173.47 250.06 146.34 236.6 146.34 188.3"/><path class="cls-10" d="M163,393.09V448l-37.12-18.36v-45c.25-.19,10.68-4.32,11.08-4.48h0Z"/><line class="cls-6" x1="141.67" y1="396.35" x2="155.54" y2="403.21"/><line class="cls-6" x1="133.41" y1="401.35" x2="155.54" y2="412.3"/><line class="cls-6" x1="133.41" y1="410.44" x2="155.54" y2="421.39"/><line class="cls-6" x1="133.41" y1="419.53" x2="155.54" y2="430.48"/><line class="cls-9" x1="359.54" y1="147.47" x2="282.64" y2="169.42"/><polyline class="cls-9" points="535.22 268.54 535.22 249.88 584.49 235.78"/><line class="cls-10" x1="588.96" y1="234.51" x2="722" y2="196.46"/><polyline class="cls-9" points="559.68 427.41 559.68 438.86 628.14 419.28 628.14 438.19"/><path class="cls-11" d="M458.09,123.87l-6.5,10.48a21.28,21.28,0,0,1,12.23,19.32,21.87,21.87,0,0,1-21.58,21.81,21.28,21.28,0,0,1-21.05-16.63L409.34,162a33.37,33.37,0,0,0,32.89,25.65A34.24,34.24,0,0,0,476,153.53,33.36,33.36,0,0,0,458.09,123.87Z"/><path class="cls-12" d="M454.79,153.76a12.72,12.72,0,0,1-12.55,12.69A12.39,12.39,0,0,1,429.68,154a12.72,12.72,0,0,1,12.55-12.69A12.39,12.39,0,0,1,454.79,153.76Z"/><line class="cls-9" x1="359.54" y1="171.26" x2="285.34" y2="192.45"/><line class="cls-9" x1="359.54" y1="195.06" x2="319.58" y2="206.47"/><line class="cls-9" x1="359.54" y1="218.86" x2="297.85" y2="236.48"/><circle class="cls-13" cx="373.53" cy="143.18" r="3.88"/><circle class="cls-14" cx="373.53" cy="166.98" r="3.88"/><circle class="cls-15" cx="373.53" cy="190.78" r="3.88"/><circle class="cls-16" cx="373.53" cy="214.58" r="3.88"/><ellipse class="cls-17" cx="281.54" cy="277.24" rx="3.8" ry="5.74"/><ellipse class="cls-18" cx="263.88" cy="270.18" rx="3.8" ry="5.74"/><ellipse class="cls-19" cx="299.21" cy="284.31" rx="3.8" ry="5.74"/><path class="cls-20" d="M635.28,456.45l-27.06,7.78a10.61,10.61,0,0,0-7.12,9.74v16.25c0,4.23,3.17,6.75,7.08,5.65v8.58l7.95-10.86,19.15-5.51a10.61,10.61,0,0,0,7.12-9.74V462.09C642.4,457.85,639.21,455.32,635.28,456.45Z"/><path class="cls-21" d="M648.71,455.34c0,4.64-3.48,9.4-7.78,10.63s-7.78-1.52-7.78-6.16,3.48-9.4,7.78-10.63S648.71,450.7,648.71,455.34Z"/><line class="cls-8" x1="608.24" y1="473.78" x2="628.85" y2="467.86"/><line class="cls-8" x1="608.24" y1="480.14" x2="635.75" y2="472.23"/><line class="cls-8" x1="608.24" y1="486.51" x2="635.75" y2="478.6"/><path class="cls-20" d="M640.7,454.58l-1.08.31v-1.58l2.63-.76v9.29l-1.55.44Z"/><polygon class="cls-22" points="144.77 293.42 125.92 317.19 108.31 282.66 127.16 258.88 144.77 293.42"/><polygon class="cls-22" points="95.61 318.49 125.92 317.19 108.31 282.66 78 283.96 95.61 318.49"/><polyline class="cls-22" points="144.8 293.49 114.53 294.85 95.65 318.56 125.92 317.19"/><polyline class="cls-22" points="108.28 282.59 127.16 258.88 96.88 260.25 78 283.96"/><line class="cls-22" x1="96.88" y1="260.25" x2="108.27" y2="282.59"/><polygon class="cls-22" points="300.96 501.45 266.27 497.04 290.48 522.27 325.17 526.68 300.96 501.45"/><polyline class="cls-22" points="325.17 526.68 312.64 478.24 266.27 497.04"/><line class="cls-22" x1="312.64" y1="478.24" x2="290.48" y2="522.27"/><path class="cls-10" d="M137,380.21h0l-1.25,12.66-9.84-8.2c.25-.19,10.68-4.32,11.08-4.48Z"/><path class="cls-9" d="M158,174.73a23.59,23.59,0,0,1-11.66,3.12c-15.11,0-27.36-14.66-27.36-32.76a37.83,37.83,0,0,1,3.22-15.42"/><path class="cls-9" d="M128.48,120.27a24.82,24.82,0,0,1,17.86-7.94c15.11,0,27.36,14.67,27.36,32.76a37.21,37.21,0,0,1-4.89,18.69"/><ellipse class="cls-23" cx="146.34" cy="145.09" rx="18.78" ry="22.48"/><path class="cls-4" d="M274.87,328.06c-1.08-4.75,1.18-11.18,5.23-10.69,2.85.34,1.94,7.07,4.3,16.73,2.46,10,2.56,11,1.64,14.24s-5.43,14.86-5.43,14.86-9.73,5.94-18.34,6a8.37,8.37,0,0,0-5-5.12c-3.89-1.33-12.3-9.63-14.76-15,0,0-.21,4.61-4.12,3.28s-6-14.5-2.26-14.6c0,0-1.34-9.15,5.14-8.95,0,0,.1-11.93,7.71-12,0,0-13.88-17.17-11-21.49s16.45,13.26,20.36,17.38S276.59,335.62,274.87,328.06Z"/><path class="cls-24" d="M274.87,328.06s.78,5,1,5.82c0,0-11.68-.46-13.22,13"/><line class="cls-24" x1="248.97" y1="316.86" x2="254.84" y2="324.7"/><path class="cls-24" d="M236.11,337.84s4.44,14.32,11.75,13.34c4.76-.63,2.22-7.61,2.22-7.61"/><path class="cls-24" d="M241.25,328.9s-2.07,12.68,11.51,15.37c3.43.68,4.71-3,2.43-5.88-4.43-5.61-7.22-11.27,2-15.35"/><path class="cls-24" d="M304.2,389.78s10.47,15.47,15.85,21.37"/><line class="cls-24" x1="358.32" y1="428.39" x2="371.94" y2="359.09"/><path class="cls-24" d="M419.38,320.8s16.68,19.65,47.89,0"/><path class="cls-4" d="M437.71,360c3.3-5.15,15.37,8,18.73,8.42s4-4.84,4.21-21-1.26-32,3.16-33S471,349.09,471,349.09s4.42-6.1,5.26-10.31-.7-23.84,2.53-24.44c5-.93,5.89,20,5.89,20s1.87-4.31,5-1,3,18.63,3,19.87-4.91,13.07-4,13.29,7.93-20.87,9.82-21.1,4.24-1.17.56,18.2c-1.32,6.92.92,22.36,1.52,25.68s3.92,10.52,3.92,10.52-5.38,19.21-30,11l-4.57-15.1s-13.75-7.4-15.37-12.9C451.45,372.35,434,365.86,437.71,360Z"/><path class="cls-24" d="M484.56,332.83s-.41,12.7-.41,14.19-5.6,9.42-5.6,9.42"/><path class="cls-24" d="M484.1,455.91s-11.78-39.13-13.27-43,2.18-7,2.18-7"/><path class="cls-24" d="M502.54,395.37a8.47,8.47,0,0,1,5.37,3.65c1.78,3,18.67,40.53,23.82,47.47"/><path class="cls-4" d="M409.36,258.86c-.41,12.4,0,44.77,23,44.19s36.47-30.29,36.6-30.7,5.87-22.21,5.6-22.62S409.36,258.86,409.36,258.86Z"/><path class="cls-4" d="M479.21,253c-.28-.23-17-12.48-17-12.48a68,68,0,0,1-1.14,16.26c.8.57,10.44,5.76,10.44,5.76Z"/><path class="cls-4" d="M481.56,281.94c-3.52,2.1-7.35,2.52-10,.59-14-10,4.4-39.24,14.44-29.41a13.72,13.72,0,0,1,3,5C493.23,268.91,487.91,278.16,481.56,281.94Z"/><path class="cls-24" d="M477.81,279c-6.56-4-4.2-22.44,6.46-25.51"/><path class="cls-4" d="M482,262.89c-.82,6.21.51,8.4,3.38,7s4.63-5.53,4.82-13.63-.82-45.55-30.85-49.8c-22.44-3.18-29.82,4.41-29.82,4.41s5.33,1.74,13.83.61,13.83-2.56,20.7,1.64S485.8,234.3,482,262.89Z"/><path class="cls-25" d="M448.83,222.71c10.76,4.39,18.07,13,19.27,24.85S463.45,269,453,269.35s-18.34-5.63-34.55-1-33.88-9.48-33.88-9.48L401,230.68Z"/><path class="cls-4" d="M384.52,258.85c3.63,3.95,65.15,2.92,69.58-6.45s6.21-31-12.19-32.49c-14.33-1.19-40.38-.2-53.14,2.79C380.77,224.58,377.41,251.12,384.52,258.85Z"/><path class="cls-4" d="M399.84,225.39c-2.36.31-4.5.66-6.31,1.06-6.73,1.48-9.56,22.34-3.58,28.43,1.8,1.83,20.58,2.3,36.44.86"/><path class="cls-4" d="M437.79,254.22c5.65-1.07,9.77-2.53,10.73-4.42,3.73-7.37,5.22-24.35-10.26-25.55a214.1,214.1,0,0,0-26.91.08"/><circle class="cls-26" cx="628.14" cy="435.01" r="3.85"/><circle class="cls-26" cx="581.37" cy="236.75" r="3.85"/><circle class="cls-26" cx="174.17" cy="411.43" r="3.85"/><circle class="cls-26" cx="146.34" cy="188.3" r="3.85"/><polyline class="cls-24" points="424.2 267.05 422.2 273.75 427.15 275.18"/><path class="cls-24" d="M423.85,280.78s10.21.67,15.16-1.81C438.53,284.81,424.67,290.18,423.85,280.78Z"/><path class="cls-27" d="M442.23,120.1A34.15,34.15,0,0,0,409.34,162l11.84-3.19a20.75,20.75,0,0,1-.53-4.72,21.87,21.87,0,0,1,21.58-21.81,21.27,21.27,0,0,1,9.35,2l6.5-10.48A33.29,33.29,0,0,0,442.23,120.1Z"/><path class="cls-24" d="M458.33,367.82c.23-.28,15.69-3.71,20.22,9"/><path class="cls-20" d="M155.78,136.37l-7,2.67v-4.66l7.7-2.93a.93.93,0,0,0-.66-1.74l-8.3,3.15a.93.93,0,0,0-.59.87v17.78a10,10,0,0,0-4.66.88c-3.63,1.49-6.57,4.23-6.57,6.13s2.94,2.25,6.57.77a14.18,14.18,0,0,0,5.64-4,4.19,4.19,0,0,0,.88-1.73V141l7.7-2.93a.93.93,0,0,0-.66-1.74Z"/><polyline class="cls-8" points="646.89 267.05 646.89 400.83 413.33 472.01 413.33 455.91"/><polyline class="cls-8" points="413.33 428.39 413.33 305.68 646.89 234.51 646.89 254.86"/><circle class="cls-28" cx="530.11" cy="353.26" r="29.57"/><polygon class="cls-20" points="545.09 353.26 522.56 336.21 522.56 370.3 545.09 353.26"/><path class="cls-10" d="M475.3,302l126.15-38.44c12.08-3.68,24.11,6,24.11,19.37v94c0,9-5.59,16.9-13.71,19.37"/><path class="cls-10" d="M593.91,401.79,458.77,443c-12.08,3.68-24.11-6-24.11-19.37v-94c0-9,5.59-16.9,13.71-19.37L459,306.94"/><polyline class="cls-10" points="221.43 271.51 291.38 304.19 291.38 384.03 269.74 373.92"/><polyline class="cls-10" points="250.76 365.05 198.27 340.52 198.27 260.69 207.66 265.08"/></svg>